<?xml version="1.0" standalone="no"?>
<!DOCTYPE svg PUBLIC "-//W3C//DTD SVG 20010904//EN"
 "http://www.w3.org/TR/2001/REC-SVG-20010904/DTD/svg10.dtd">
<svg version="1.0" xmlns="http://www.w3.org/2000/svg"
 width="85.000000pt" height="85.000000pt" viewBox="0 0 85.000000 85.000000"
 preserveAspectRatio="xMidYMid meet">
<metadata>
Created by potrace 1.11, written by Peter Selinger 2001-2013
</metadata>
<g transform="translate(0.000000,85.000000) scale(0.100000,-0.100000)"
fill="#000000" stroke="none">
<path d="M44 648 c-3 -4 4 -13 16 -20 19 -12 20 -22 20 -197 0 -176 -1 -186
-22 -208 l-21 -23 59 -1 c32 0 112 -1 176 -2 l116 -2 4 58 c2 31 1 57 -2 57
-3 0 -15 -15 -27 -34 l-21 -33 -91 -1 -91 0 0 184 c0 176 1 184 22 204 12 11
20 21 17 21 -20 6 -151 3 -155 -3z"/>
<path d="M557 646 c-95 -35 -148 -109 -153 -211 -9 -188 193 -303 374 -213
l47 23 3 83 c3 92 12 83 -83 84 -80 1 -82 -1 -37 -24 41 -21 42 -23 42 -70 0
-40 -4 -50 -26 -65 -49 -32 -142 -15 -186 34 -72 80 -58 251 25 302 71 43 139
34 209 -28 l36 -31 0 50 c1 46 -2 52 -26 62 -45 17 -182 20 -225 4z"/>
</g>
</svg>
